<svg width="107" height="27" viewBox="0 0 107 27" fill="none" xmlns="http://www.w3.org/2000/svg">
<path d="M16.8382 10.2988V15.9221H5.62326V26.2208H0V0H16.8382V5.62327H5.62326V10.2988H16.8382Z" fill="#23334E"/>
<path d="M35.3508 20.5976H46.5657V26.2208H29.7275V0H35.3508V20.5976Z" fill="#23334E"/>
<path d="M77.7143 18.7021C77.7143 23.6935 75.2186 26.1893 70.2271 26.1893H65.5516C60.5602 26.1893 58.0645 23.6935 58.0645 18.7021V7.48716C58.0645 2.49572 60.5602 0 65.5516 0H70.2271C75.2186 0 77.7143 2.49572 77.7143 7.48716V18.7021ZM63.6877 18.7021C63.6877 19.9658 64.3195 20.566 65.5516 20.566H70.2271C71.4592 20.566 72.091 19.9342 72.091 18.7021V7.48716C72.091 6.25509 71.4592 5.62326 70.2271 5.62326H65.5516C64.3195 5.62326 63.6877 6.25509 63.6877 7.48716V18.7021Z" fill="#23334E"/>
<path d="M107 0V5.62327H100.461V26.2208H94.8373V5.62327H88.2979V0H107Z" fill="#23334E"/>
</svg>
